<svg width="278" height="274" viewBox="0 0 278 274" fill="none" xmlns="http://www.w3.org/2000/svg">
<g clip-path="url(#clip0_11_3)">
<path d="M177.313 61.4209H162.521V188.974C162.521 190.976 162.131 192.957 161.374 194.806C160.617 196.655 159.507 198.335 158.108 199.75C156.709 201.166 155.048 202.288 153.22 203.054C151.392 203.82 149.433 204.214 147.454 204.214H34.3655V204.36C34.3655 206.361 34.7552 208.343 35.5123 210.192C36.2695 212.041 37.3793 213.721 38.7784 215.136C40.1775 216.551 41.8384 217.673 43.6664 218.439C45.4944 219.205 47.4536 219.599 49.4322 219.599H177.313C179.291 219.599 181.251 219.205 183.079 218.439C184.907 217.673 186.567 216.551 187.967 215.136C189.366 213.721 190.475 212.041 191.233 210.192C191.99 208.343 192.38 206.361 192.38 204.36V76.6604C192.38 72.6186 190.792 68.7424 187.967 65.8844C185.141 63.0265 181.309 61.4209 177.313 61.4209Z" fill="#F2F2F2"/>
<path d="M247.432 264.123C247.694 264.135 247.953 264.066 248.175 263.924C248.396 263.782 248.569 263.575 248.671 263.33C248.772 263.086 248.796 262.816 248.74 262.556C248.684 262.297 248.551 262.062 248.359 261.882L248.271 261.53C248.283 261.501 248.294 261.473 248.306 261.445C248.57 260.815 249.012 260.278 249.577 259.901C250.142 259.524 250.804 259.324 251.48 259.326C252.157 259.329 252.818 259.534 253.38 259.915C253.942 260.296 254.38 260.837 254.639 261.469C255.675 263.992 256.994 266.52 257.318 269.188C257.461 270.367 257.401 271.563 257.14 272.721C259.573 267.353 260.836 261.519 260.844 255.614C260.845 254.133 260.763 252.652 260.601 251.179C260.466 249.972 260.279 248.774 260.04 247.584C258.736 241.127 255.937 235.075 251.871 229.925C249.904 228.839 248.312 227.169 247.312 225.14C246.95 224.411 246.693 223.633 246.551 222.829C246.773 222.858 247.388 219.439 247.221 219.23C247.53 218.755 248.084 218.519 248.422 218.055C250.102 215.751 252.417 216.154 253.625 219.285C256.207 220.603 256.232 222.788 254.648 224.89C253.64 226.227 253.501 228.037 252.617 229.468C252.708 229.586 252.803 229.7 252.894 229.818C254.557 231.981 256.006 234.303 257.221 236.752C256.925 234.009 257.278 231.234 258.25 228.655C259.235 226.252 261.081 224.228 262.706 222.151C263.136 221.592 263.72 221.176 264.384 220.953C265.048 220.731 265.763 220.712 266.437 220.901C267.111 221.089 267.715 221.475 268.173 222.01C268.63 222.545 268.921 223.205 269.007 223.908C269.01 223.938 269.014 223.969 269.017 223.999C268.775 224.137 268.539 224.283 268.308 224.438C268.017 224.634 267.792 224.915 267.662 225.243C267.532 225.571 267.502 225.931 267.578 226.276C267.654 226.621 267.831 226.935 268.085 227.177C268.34 227.418 268.662 227.576 269.007 227.63L269.042 227.636C268.956 228.516 268.804 229.388 268.587 230.245C270.673 238.403 266.171 241.374 259.742 241.507C259.6 241.581 259.462 241.654 259.32 241.724C260.54 245.223 261.306 248.868 261.598 252.567C261.762 254.749 261.753 256.941 261.568 259.122L261.579 259.044C262.045 256.62 263.324 254.432 265.2 252.85C267.986 250.535 271.922 249.683 274.928 247.822C275.248 247.615 275.619 247.504 275.999 247.503C276.378 247.502 276.75 247.611 277.071 247.817C277.391 248.023 277.647 248.317 277.807 248.665C277.968 249.013 278.027 249.4 277.977 249.781L277.964 249.862C277.516 250.046 277.08 250.259 276.658 250.498C276.417 250.636 276.18 250.783 275.949 250.937C275.659 251.134 275.433 251.414 275.303 251.742C275.173 252.07 275.144 252.43 275.219 252.775C275.295 253.12 275.472 253.434 275.727 253.676C275.982 253.917 276.303 254.075 276.648 254.129L276.684 254.135C276.709 254.138 276.731 254.142 276.756 254.146C275.991 255.995 274.916 257.697 273.58 259.177C272.276 266.298 266.675 266.974 260.684 264.9H260.681C260.023 267.789 259.071 270.601 257.839 273.291H247.687C247.65 273.177 247.618 273.06 247.585 272.945C248.525 273.005 249.468 272.948 250.394 272.776C249.641 271.841 248.887 270.899 248.134 269.964C248.117 269.947 248.102 269.928 248.087 269.909C247.705 269.431 247.319 268.956 246.937 268.477L246.937 268.477C246.917 267.01 247.083 265.547 247.432 264.123Z" fill="#F2F2F2"/>
<path d="M135.616 44.0701C135.987 44.6381 136.475 45.1178 137.047 45.4762C137.619 45.8346 138.261 46.063 138.929 46.1457C139.597 46.2284 140.275 46.1634 140.915 45.9551C141.556 45.7468 142.144 45.4003 142.639 44.9395L163.746 54.5711L167.815 49.3212L142.664 38.0669C141.835 37.2816 140.75 36.8311 139.615 36.8008C138.479 36.7705 137.373 37.1624 136.504 37.9024C135.635 38.6424 135.065 39.6789 134.901 40.8157C134.738 41.9524 134.992 43.1104 135.616 44.0701Z" fill="#A0616A"/>
<path d="M226.197 50.0759L228.29 62.0744C228.388 62.6341 228.368 63.2084 228.234 63.7602C228.099 64.312 227.852 64.8293 227.508 65.2787C227.164 65.7282 226.731 66.0999 226.236 66.37C225.742 66.6402 225.197 66.8027 224.637 66.8473L189.066 69.6765L147.255 50.7494L152.249 41.1609L188.545 52.7865L226.197 50.0759Z" fill="#6C63FF"/>
<path d="M142.947 41.477H15.0668C6.74562 41.477 0 48.2999 0 56.7165V184.416C0 192.832 6.74562 199.655 15.0668 199.655H142.947C151.268 199.655 158.014 192.832 158.014 184.416V56.7165C158.014 48.2999 151.268 41.477 142.947 41.477Z" fill="#F2F2F2"/>
<path d="M15.0669 44.6109C13.4952 44.6109 11.9389 44.9241 10.4868 45.5324C9.03478 46.1408 7.71541 47.0325 6.60405 48.1566C5.4927 49.2807 4.61111 50.6151 4.00965 52.0838C3.40819 53.5526 3.09863 55.1267 3.09863 56.7164V184.416C3.09863 187.627 4.35957 190.706 6.60405 192.976C8.84854 195.246 11.8927 196.521 15.0669 196.521H96.6834C104.331 196.521 111.903 194.998 118.968 192.038C126.033 189.078 132.452 184.739 137.86 179.27C143.267 173.801 147.556 167.308 150.483 160.162C153.409 153.016 154.915 145.356 154.915 137.622V56.7164C154.915 55.1267 154.606 53.5526 154.004 52.0838C153.403 50.6151 152.521 49.2807 151.41 48.1566C150.299 47.0325 148.979 46.1408 147.527 45.5324C146.075 44.9241 144.519 44.6109 142.947 44.6109H15.0669Z" fill="white"/>
<path d="M114.756 83.3656H42.9789C42.3203 83.3656 41.6887 83.101 41.223 82.6299C40.7572 82.1588 40.4956 81.52 40.4956 80.8538C40.4956 80.1876 40.7572 79.5487 41.223 79.0777C41.6887 78.6066 42.3203 78.342 42.9789 78.342H114.756C115.414 78.342 116.046 78.6066 116.512 79.0777C116.977 79.5487 117.239 80.1876 117.239 80.8538C117.239 81.52 116.977 82.1588 116.512 82.6299C116.046 83.101 115.414 83.3656 114.756 83.3656Z" fill="#F2F2F2"/>
<path d="M114.756 136.929H42.9789C42.3203 136.929 41.6887 136.665 41.223 136.194C40.7572 135.723 40.4956 135.084 40.4956 134.417C40.4956 133.751 40.7572 133.112 41.223 132.641C41.6887 132.17 42.3203 131.906 42.9789 131.906H114.756C115.414 131.906 116.046 132.17 116.512 132.641C116.977 133.112 117.239 133.751 117.239 134.417C117.239 135.084 116.977 135.723 116.512 136.194C116.046 136.665 115.414 136.929 114.756 136.929Z" fill="#F2F2F2"/>
<path d="M143.903 110.165H13.832C13.1733 110.165 12.5417 109.9 12.076 109.429C11.6103 108.958 11.3486 108.319 11.3486 107.653C11.3486 106.987 11.6103 106.348 12.076 105.877C12.5417 105.406 13.1733 105.141 13.832 105.141H143.903C144.561 105.141 145.193 105.406 145.659 105.877C146.124 106.348 146.386 106.987 146.386 107.653C146.386 108.319 146.124 108.958 145.659 109.429C145.193 109.9 144.561 110.165 143.903 110.165Z" fill="#F2F2F2"/>
<path d="M221.703 102.96L208.745 130.882L258.59 125.776L248.185 98.9714L221.703 102.96Z" fill="#A0616A"/>
<path d="M233.291 263.442L228.565 263.402L226.473 244.534L233.448 244.594L233.291 263.442Z" fill="#A0616A"/>
<path d="M218.153 271.043C218.149 271.61 218.367 272.155 218.76 272.559C219.153 272.963 219.688 273.193 220.248 273.199L229.644 273.278L231.289 269.906L231.893 273.295L235.439 273.328L234.543 261.238L233.31 261.155L228.279 260.804L226.656 260.694L226.627 264.115L219.079 269.293C218.796 269.487 218.564 269.748 218.403 270.053C218.242 270.358 218.156 270.697 218.153 271.043Z" fill="#2F2E41"/>
<path d="M180.991 263.464L176.485 262.02L179.966 243.364L186.616 245.494L180.991 263.464Z" fill="#A0616A"/>
<path d="M164.313 266.231C164.145 266.771 164.195 267.357 164.453 267.86C164.711 268.363 165.156 268.742 165.689 268.914L174.648 271.782L177.2 269.047L176.793 272.467L180.172 273.552L182.828 261.729L181.673 261.283L176.966 259.453L175.446 258.865L174.426 262.127L165.707 264.833C165.38 264.935 165.082 265.115 164.84 265.358C164.597 265.602 164.416 265.901 164.313 266.231Z" fill="#2F2E41"/>
<path d="M256.32 117.924L210.999 126.323C210.999 126.323 203.729 131.823 205.674 133.793C207.619 135.763 207.92 135.457 206.643 136.75C205.365 138.042 202.603 139.769 202.576 140.9C202.548 142.031 182.267 192.745 182.267 192.745C182.267 192.745 184.521 191.606 182.83 193.315C181.14 195.024 181.14 196.437 181.14 196.437L173.253 250.298L186.062 251.06L198.605 201.957L226.581 156.083C226.581 156.083 229.357 196.991 229.473 199.711C229.59 202.432 231.28 199.013 229.59 202.432C227.9 205.851 226.773 203.572 227.9 205.851C229.027 208.131 223.841 254.534 223.841 254.534H235.532L260.608 158.352C260.608 158.352 269.529 130.855 256.32 117.924Z" fill="#2F2E41"/>
<path d="M242.969 40.9902L224.815 39.0822L220.111 45.2587L214.632 48.2106C212.313 49.4597 210.399 51.3581 209.119 53.6785C207.838 55.9989 207.246 58.6432 207.412 61.2951L213.816 98.9715C213.816 98.9715 208.407 111.291 212.126 114.357C215.844 117.423 209.25 125.017 217.196 121.195C225.141 117.373 259.448 121.765 259.448 121.765L252.125 100.681L257.596 79.9635L258.198 62.5922C258.31 59.3461 257.358 56.1535 255.489 53.5121C253.62 50.8707 250.94 48.9289 247.866 47.9893L247.101 47.7555L242.969 40.9902Z" fill="#6C63FF"/>
<path d="M267.962 26.913C268.081 32.0887 266.169 37.1003 263.422 41.5023C262.606 38.9325 261.138 36.5937 259.608 34.3641C260.379 39.1873 259.557 44.1331 257.27 48.4363C257.189 48.4946 257.106 48.5488 257.019 48.5986C254.78 49.9611 251.941 50.5129 249.519 49.5289C254.524 44.0718 255.161 35.0303 250.965 28.9094C249.777 27.1725 248.24 25.6364 247.504 23.6599C246.342 20.5061 247.459 17.0338 248.164 13.7457C248.823 10.6855 248.938 7.04387 246.908 4.80113C247.125 4.48771 247.42 4.23823 247.764 4.07825C248.107 3.91827 248.487 3.85354 248.863 3.8907C250.115 4.0695 251.025 5.16976 251.606 6.30296C252.186 7.43612 252.568 8.69205 253.377 9.67082C254.874 11.5028 257.424 11.9359 259.573 12.9014C264.777 15.2461 267.838 21.1538 267.962 26.913Z" fill="#2F2E41"/>
<path d="M133.885 273.322C133.885 273.411 133.902 273.499 133.935 273.582C133.969 273.664 134.018 273.739 134.081 273.802C134.143 273.865 134.217 273.915 134.298 273.949C134.38 273.983 134.467 274 134.555 274H277.251C277.428 274 277.599 273.929 277.725 273.801C277.85 273.674 277.921 273.502 277.921 273.322C277.921 273.142 277.85 272.97 277.725 272.842C277.599 272.715 277.428 272.644 277.251 272.644H134.555C134.467 272.644 134.38 272.661 134.298 272.695C134.217 272.729 134.143 272.779 134.081 272.842C134.018 272.905 133.969 272.98 133.935 273.062C133.902 273.145 133.885 273.233 133.885 273.322Z" fill="#CCCCCC"/>
<path d="M269.086 146.871C271.886 146.871 274.156 144.575 274.156 141.743C274.156 138.911 271.886 136.615 269.086 136.615C266.286 136.615 264.016 138.911 264.016 141.743C264.016 144.575 266.286 146.871 269.086 146.871Z" fill="#6C63FF"/>
<path d="M224.156 23.9537C224.454 22.9009 222.404 29.3365 223.393 29.4527C227.898 29.9754 234.082 32.6968 237.22 33.9664C237.361 33.9498 237.503 33.9332 237.64 33.9124C237.976 33.8751 238.305 33.8211 238.629 33.7589C245.935 32.3607 248.744 21.009 248.744 20.9053C248.744 20.395 247.534 6.3787 245.626 6.17128C245.125 6.11629 244.621 6.08859 244.117 6.0883H239.384C238.404 5.87481 237.411 5.72925 236.412 5.65266H236.404C226.874 4.91829 219.361 10.7932 220.063 17.9419C220.067 17.9502 220.075 17.9585 220.08 17.9668C220.283 18.2738 220.462 18.5642 220.62 18.8422C220.774 19.1036 220.902 19.3525 221.015 19.589C221.883 21.4146 219.65 23.7117 221.131 24.1404C223.1 24.7107 215.952 43.4539 223.746 43.4539C219.955 44.5441 223.336 26.858 224.156 23.9537Z" fill="#2F2E41"/>
<path d="M232.663 34.9514C238.853 34.9514 243.87 29.8762 243.87 23.6156C243.87 17.3549 238.853 12.2797 232.663 12.2797C226.473 12.2797 221.456 17.3549 221.456 23.6156C221.456 29.8762 226.473 34.9514 232.663 34.9514Z" fill="#A0616A"/>
<path d="M220.063 18.5601C220.25 18.6596 220.433 18.7509 220.62 18.8422C220.815 18.9376 221.01 19.033 221.206 19.1202C224.959 20.842 228.013 21.0328 229.867 18.5601C229.916 17.2589 230.205 15.9786 230.719 14.7845C230.628 16.1189 230.976 17.4462 231.708 18.5601H235.44C239.284 21.1407 241.258 21.4104 238.59 29.8826C237.846 32.2433 234.888 45.9806 236.052 48.0177C236.388 47.9804 239.97 32.9339 240.294 32.8716C247.6 31.4734 252.242 19.2986 251.648 18.6099C251.651 16.6513 251.206 14.7186 250.347 12.9631C249.261 10.739 247.568 8.87594 245.468 7.59435C244.216 6.98048 242.911 6.48465 241.57 6.11317C241.537 6.10486 241.507 6.09655 241.474 6.08827C241.063 5.97624 240.643 5.87252 240.223 5.78539C239.356 5.60019 238.479 5.46582 237.597 5.38295C237.534 5.37879 237.472 5.37463 237.414 5.37463C237.061 5.37547 236.716 5.47144 236.412 5.65263C236.408 5.65263 236.408 5.65676 236.404 5.65676C236.187 5.78493 235.998 5.9556 235.847 6.15878C235.582 6.50064 235.438 6.92316 235.44 7.35784H231.284C231.13 7.35784 230.976 7.36198 230.823 7.37027C228.049 7.46615 225.41 8.6055 223.423 10.5654C221.436 12.5252 220.244 15.1645 220.079 17.9668C220.067 18.1659 220.063 18.3609 220.063 18.5601Z" fill="#2F2E41"/>
<path d="M244.567 14.9363C248.645 14.9363 251.951 11.5927 251.951 7.46814C251.951 3.3436 248.645 0 244.567 0C240.489 0 237.184 3.3436 237.184 7.46814C237.184 11.5927 240.489 14.9363 244.567 14.9363Z" fill="#2F2E41"/>
<path d="M269.143 143.858C269.503 143.283 269.736 142.636 269.825 141.961C269.913 141.287 269.856 140.601 269.657 139.951C269.458 139.301 269.122 138.702 268.671 138.196C268.221 137.691 267.667 137.29 267.049 137.022L267.086 113.601L260.683 111.998L260.841 139.816C260.472 140.902 260.511 142.088 260.949 143.148C261.387 144.208 262.194 145.068 263.217 145.566C264.24 146.065 265.409 146.166 266.501 145.851C267.593 145.536 268.533 144.827 269.143 143.858Z" fill="#A0616A"/>
<path d="M237.439 57.8243L247.402 50.976C247.866 50.6565 248.392 50.4388 248.945 50.337C249.498 50.2351 250.066 50.2513 250.612 50.3845C251.158 50.5178 251.671 50.7651 252.117 51.1106C252.563 51.4561 252.933 51.8921 253.203 52.3907L270.332 84.0495L270.397 130.382L259.703 129.704L255.313 91.4523L237.439 57.8243Z" fill="#6C63FF"/>
<path d="M160.924 162.901H54.447C52.1311 162.901 49.91 163.831 48.2724 165.488C46.6348 167.144 45.7148 169.39 45.7148 171.733C45.7148 174.075 46.6348 176.322 48.2724 177.978C49.91 179.635 52.1311 180.565 54.447 180.565H160.924C163.239 180.565 165.461 179.635 167.098 177.978C168.736 176.322 169.656 174.075 169.656 171.733C169.656 169.39 168.736 167.144 167.098 165.488C165.461 163.831 163.239 162.901 160.924 162.901Z" fill="white"/>
<path d="M160.923 181.135H54.4469C51.9816 181.135 49.6172 180.144 47.874 178.381C46.1307 176.618 45.1514 174.226 45.1514 171.733C45.1514 169.239 46.1307 166.848 47.874 165.085C49.6172 163.321 51.9816 162.331 54.4469 162.331H160.923C163.389 162.331 165.753 163.321 167.496 165.085C169.24 166.848 170.219 169.239 170.219 171.733C170.219 174.226 169.24 176.618 167.496 178.381C165.753 180.144 163.389 181.135 160.923 181.135ZM54.4469 163.47C52.2804 163.47 50.2026 164.341 48.6707 165.89C47.1387 167.44 46.2781 169.542 46.2781 171.733C46.2781 173.924 47.1387 176.026 48.6707 177.575C50.2026 179.125 52.2804 179.995 54.4469 179.995H160.923C163.09 179.995 165.168 179.125 166.7 177.575C168.232 176.026 169.092 173.924 169.092 171.733C169.092 169.542 168.232 167.44 166.7 165.89C165.168 164.341 163.09 163.47 160.923 163.47H54.4469Z" fill="#6C63FF"/>
<path d="M167.202 201.445H120.213C119.555 201.445 118.923 201.181 118.457 200.71C117.992 200.238 117.73 199.6 117.73 198.933C117.73 198.267 117.992 197.628 118.457 197.157C118.923 196.686 119.555 196.422 120.213 196.422H167.202C167.861 196.422 168.492 196.686 168.958 197.157C169.424 197.628 169.685 198.267 169.685 198.933C169.685 199.6 169.424 200.238 168.958 200.71C168.492 201.181 167.861 201.445 167.202 201.445Z" fill="#6C63FF"/>
</g>
<defs>
<clipPath id="clip0_11_3">
<rect width="278" height="274" fill="white"/>
</clipPath>
</defs>
</svg>
